# xmcd
#
# Track frame offsets: 
#        150
#        17270
#        35038
#        48631
#        65979
#        81274
#        97954
#        113733
#        133245
#        149846
#        170070
#        185453
#
# Disc length: 2747 seconds
#
# Revision: 2
# Processed by: cddbd v1.5.2PL0 Copyright (c) Steve Scherf et al.
# Submitted via: ExactAudioCopy v0.90b4
#
DISCID=b40ab90c
DTITLE=邓丽君 - 邓丽君全辑 (Disc01)
DYEAR=1977
DGENRE=Pop
TTITLE0=情人的关怀
TTITLE1=请你别再找我
TTITLE2=不论今宵或明天
TTITLE3=相聚更甜蜜
TTITLE4=雨下的花朵.
TTITLE5=冬之恋情
TTITLE6=再见我的爱人
TTITLE7=谁来爱我
TTITLE8=再来一杯
TTITLE9=夜雾下的姑娘
TTITLE10=逃避行
TTITLE11=爱的理想
EXTD=
EXTT0=
EXTT1=
EXTT2=
EXTT3=
EXTT4=
EXTT5=
EXTT6=
EXTT7=
EXTT8=
EXTT9=
EXTT10=
EXTT11=
PLAYORDER=
